<svg version="1.1" id="Layer_1" xmlns="http://www.w3.org/2000/svg" xmlns:xlink="http://www.w3.org/1999/xlink" x="0px" y="0px"
	 width="100%" viewBox="0 0 512 512" enable-background="new 0 0 512 512" xml:space="preserve">
<path fill="#010101" opacity="1.000000" stroke="none" 
	d="
M513.000000,188.000000 
	C513.000000,296.640259 513.000000,404.780518 513.000000,512.960388 
	C342.401398,512.960388 171.802780,512.960388 1.102087,512.960388 
	C1.102087,342.443115 1.102087,171.886124 1.102087,1.164572 
	C171.666534,1.164572 342.333252,1.164572 513.000000,1.164572 
	C513.000000,63.197178 513.000000,125.348587 513.000000,188.000000 
M385.719543,292.059296 
	C392.925446,294.012939 394.995392,296.770935 394.996765,304.604706 
	C395.006012,356.429047 395.036865,408.253418 394.926331,460.077545 
	C394.918518,463.737885 395.500763,465.490875 399.599182,466.469299 
	C418.511292,470.984467 437.298615,476.020386 456.144623,480.814880 
	C468.304901,483.908539 480.489227,486.907562 492.781342,489.978577 
	C492.781342,334.429657 492.781342,179.354126 492.781342,23.941231 
	C460.019257,32.276226 427.542267,40.538685 395.001587,48.817348 
	C395.001587,51.124744 395.001587,52.951797 395.001587,54.778847 
	C395.001556,106.436546 395.007782,158.094238 394.994812,209.751938 
	C394.992859,217.607239 392.502106,220.643936 384.249481,221.998749 
	C377.294006,220.274338 375.009705,217.366852 375.007690,209.984055 
	C374.993591,158.818802 375.000214,107.653549 375.000214,56.488297 
	C375.000214,54.724777 375.000214,52.961254 375.000214,51.294975 
	C288.009827,51.294975 201.606247,51.294975 115.320007,51.294975 
	C115.320007,59.167904 115.320007,66.741875 115.320007,74.436478 
	C117.637527,74.436478 119.635056,74.436478 121.632576,74.436478 
	C193.630585,74.436478 265.628601,74.432350 337.626617,74.441162 
	C347.827393,74.442413 350.997864,77.662262 350.998444,87.926987 
	C351.001282,138.592255 350.999969,189.257523 350.999603,239.922791 
	C350.999512,251.602066 348.211792,254.433868 336.679321,254.434265 
	C264.847961,254.436737 193.016617,254.435516 121.185272,254.435516 
	C119.227310,254.435516 117.269348,254.435516 115.260117,254.435516 
	C115.260117,278.360260 115.260117,301.773987 115.260117,325.255310 
	C130.101151,325.255310 144.679733,325.255310 159.686493,325.255310 
	C159.686493,320.992462 159.634613,317.027740 159.696701,313.064819 
	C159.852600,303.112915 167.355087,298.758942 175.995850,303.719727 
	C204.108154,319.859680 232.194763,336.044617 260.254608,352.275635 
	C269.393005,357.561615 269.399078,366.428284 260.268921,371.710083 
	C232.210068,387.941986 204.125046,404.128906 176.013306,420.269012 
	C167.371506,425.230652 159.854950,420.882660 159.697205,410.946106 
	C159.632523,406.871063 159.686508,402.794128 159.686508,398.787537 
	C144.316208,398.787537 129.752563,398.787537 115.330284,398.787537 
	C115.330284,420.384583 115.330284,441.628265 115.330284,462.667755 
	C202.064850,462.667755 288.468597,462.667755 375.000214,462.667755 
	C375.000214,460.512177 375.000214,458.688629 375.000214,456.865051 
	C375.000214,406.033112 374.994751,355.201202 375.006012,304.369263 
	C375.007751,296.567261 377.365814,293.663544 385.719543,292.059296 
M331.002655,136.500000 
	C331.002655,122.581482 331.002655,108.662964 331.002655,94.798828 
	C227.289612,94.798828 124.255455,94.798828 21.223122,94.798828 
	C21.223122,141.472687 21.223122,187.748291 21.223122,234.213898 
	C124.531120,234.213898 227.613129,234.213898 331.002655,234.213898 
	C331.002655,201.794159 331.002655,169.647079 331.002655,136.500000 
M148.499725,378.391541 
	C153.496063,378.391510 158.492401,378.390747 163.488739,378.391602 
	C176.935745,378.393829 178.475891,379.795105 179.816788,393.201111 
	C179.844711,393.480255 180.125626,393.734100 180.622864,394.544952 
	C199.184692,383.824860 217.750305,373.102600 236.996918,361.987030 
	C217.569626,350.780884 199.065933,340.107483 180.348526,329.310822 
	C177.646652,345.244324 177.207153,345.608490 161.411957,345.608490 
	C124.938560,345.608582 88.465157,345.608551 51.991760,345.608582 
	C50.046635,345.608582 48.101509,345.608582 45.921597,345.608582 
	C45.921597,356.753174 45.921597,367.303711 45.921597,378.391846 
	C79.978394,378.391846 113.739105,378.391846 148.499725,378.391541 
z"/>
<path fill="#FEFEFE" opacity="1.000000" stroke="none" 
	d="
M384.991425,291.876923 
	C377.365814,293.663544 375.007751,296.567261 375.006012,304.369263 
	C374.994751,355.201202 375.000214,406.033112 375.000214,456.865051 
	C375.000214,458.688629 375.000214,460.512177 375.000214,462.667755 
	C288.468597,462.667755 202.064850,462.667755 115.330284,462.667755 
	C115.330284,441.628265 115.330284,420.384583 115.330284,398.787537 
	C129.752563,398.787537 144.316208,398.787537 159.686508,398.787537 
	C159.686508,402.794128 159.632523,406.871063 159.697205,410.946106 
	C159.854950,420.882660 167.371506,425.230652 176.013306,420.269012 
	C204.125046,404.128906 232.210068,387.941986 260.268921,371.710083 
	C269.399078,366.428284 269.393005,357.561615 260.254608,352.275635 
	C232.194763,336.044617 204.108154,319.859680 175.995850,303.719727 
	C167.355087,298.758942 159.852600,303.112915 159.696701,313.064819 
	C159.634613,317.027740 159.686493,320.992462 159.686493,325.255310 
	C144.679733,325.255310 130.101151,325.255310 115.260117,325.255310 
	C115.260117,301.773987 115.260117,278.360260 115.260117,254.435516 
	C117.269348,254.435516 119.227310,254.435516 121.185272,254.435516 
	C193.016617,254.435516 264.847961,254.436737 336.679321,254.434265 
	C348.211792,254.433868 350.999512,251.602066 350.999603,239.922791 
	C350.999969,189.257523 351.001282,138.592255 350.998444,87.926987 
	C350.997864,77.662262 347.827393,74.442413 337.626617,74.441162 
	C265.628601,74.432350 193.630585,74.436478 121.632576,74.436478 
	C119.635056,74.436478 117.637527,74.436478 115.320007,74.436478 
	C115.320007,66.741875 115.320007,59.167904 115.320007,51.294975 
	C201.606247,51.294975 288.009827,51.294975 375.000214,51.294975 
	C375.000214,52.961254 375.000214,54.724777 375.000214,56.488297 
	C375.000214,107.653549 374.993591,158.818802 375.007690,209.984055 
	C375.009705,217.366852 377.294006,220.274338 384.622742,222.540131 
	C384.994629,231.009903 384.993256,238.938309 384.628540,246.961304 
	C378.032318,248.790756 374.845825,252.379120 375.054291,257.428436 
	C375.266754,262.574402 378.585175,265.829193 384.993744,267.630127 
	C384.996307,276.017609 384.993866,283.947266 384.991425,291.876923 
z"/>
<path fill="#FFCD69" opacity="1.000000" stroke="none" 
	d="
M385.355469,291.968109 
	C384.993866,283.947266 384.996307,276.017609 385.369019,267.552673 
	C391.953308,265.523590 394.952484,262.336578 395.009613,257.166534 
	C395.070038,251.697586 391.886963,248.424881 384.991882,246.866699 
	C384.993256,238.938309 384.994629,231.009903 384.991791,222.623718 
	C392.502106,220.643936 394.992859,217.607239 394.994812,209.751938 
	C395.007782,158.094238 395.001556,106.436546 395.001587,54.778847 
	C395.001587,52.951797 395.001587,51.124744 395.001587,48.817348 
	C427.542267,40.538685 460.019257,32.276226 492.781342,23.941231 
	C492.781342,179.354126 492.781342,334.429657 492.781342,489.978577 
	C480.489227,486.907562 468.304901,483.908539 456.144623,480.814880 
	C437.298615,476.020386 418.511292,470.984467 399.599182,466.469299 
	C395.500763,465.490875 394.918518,463.737885 394.926331,460.077545 
	C395.036865,408.253418 395.006012,356.429047 394.996765,304.604706 
	C394.995392,296.770935 392.925446,294.012939 385.355469,291.968109 
z"/>
<path fill="#FC7A78" opacity="1.000000" stroke="none" 
	d="
M331.002655,137.000000 
	C331.002655,169.647079 331.002655,201.794159 331.002655,234.213898 
	C227.613129,234.213898 124.531120,234.213898 21.223122,234.213898 
	C21.223122,187.748291 21.223122,141.472687 21.223122,94.798828 
	C124.255455,94.798828 227.289612,94.798828 331.002655,94.798828 
	C331.002655,108.662964 331.002655,122.581482 331.002655,137.000000 
M132.993088,119.462837 
	C128.226852,114.191246 122.704880,113.241066 118.171394,116.912415 
	C113.621193,120.597305 113.293213,126.146507 117.388580,132.016556 
	C123.480049,140.747696 129.512466,149.524780 135.829102,158.091278 
	C137.826263,160.799789 137.955048,162.616104 135.914520,165.410217 
	C127.968414,176.290817 120.238243,187.332031 112.581268,198.419510 
	C109.083298,203.484665 110.000755,209.338058 114.419853,212.618958 
	C119.063164,216.066376 125.003174,215.021088 128.846680,209.902451 
	C131.742401,206.046051 134.431183,202.034348 137.215424,198.094131 
	C141.565063,191.938614 145.917557,185.785095 150.496597,179.308609 
	C151.919678,181.237869 152.925400,182.549789 153.877029,183.899841 
	C160.011063,192.601944 166.088608,201.344315 172.280304,210.005112 
	C174.931427,213.713440 178.561401,215.360641 183.151764,214.208633 
	C187.541199,213.107056 190.339371,210.058868 190.394836,205.771057 
	C190.432266,202.875565 189.167404,199.570312 187.503891,197.112457 
	C179.495422,185.279892 171.153564,173.672989 162.800323,161.801666 
	C169.878815,151.749954 177.004349,141.940720 183.726898,131.862686 
	C185.360199,129.414139 186.460983,126.062210 186.393143,123.158684 
	C186.297150,119.049294 183.457840,116.109779 179.350266,115.093536 
	C174.897888,113.991997 171.100815,115.339005 168.389755,119.149651 
	C162.516449,127.405090 156.690201,135.694016 150.562607,144.368622 
	C144.676224,136.020767 139.048004,128.039001 132.993088,119.462837 
M68.550446,194.179138 
	C66.122154,194.179138 63.693855,194.179138 61.230766,194.179138 
	C61.230766,187.417740 61.230766,181.320236 61.230766,174.753296 
	C67.737747,174.753296 74.024109,174.855118 80.305756,174.726364 
	C87.451820,174.579941 92.073334,170.374573 91.929359,164.406036 
	C91.787010,158.504532 87.408897,154.826111 80.345596,154.772690 
	C74.056999,154.725128 67.767761,154.762711 61.358242,154.762711 
	C61.358242,147.893890 61.358242,141.528381 61.358242,134.997757 
	C68.872444,134.997757 76.028458,135.055740 83.183090,134.981140 
	C90.082680,134.909180 94.314842,130.964737 94.241966,124.849464 
	C94.171745,118.956490 90.004234,115.078804 83.388596,115.025070 
	C73.058372,114.941162 62.726669,114.953377 52.396183,115.018478 
	C44.870625,115.065910 41.032654,118.892693 41.019302,126.443115 
	C40.974220,151.937027 40.973267,177.431122 41.020092,202.925034 
	C41.033630,210.294861 44.742729,214.083557 52.014748,214.148331 
	C62.511429,214.241837 73.010147,214.236374 83.506889,214.145630 
	C90.110443,214.088547 94.247917,210.168808 94.249969,204.265793 
	C94.252014,198.402161 90.121033,194.430389 83.530228,194.216019 
	C78.869514,194.064438 74.200043,194.181854 68.550446,194.179138 
M291.555450,134.766205 
	C294.388489,134.759842 297.228241,134.876816 300.053162,134.722290 
	C306.565277,134.366074 310.906799,130.266632 310.914246,124.633606 
	C310.922089,118.738884 306.481506,114.803673 299.545898,114.775101 
	C285.880615,114.718803 272.214874,114.730263 258.549500,114.768326 
	C251.068283,114.789162 246.822876,118.448532 246.860306,124.694122 
	C246.897079,130.828995 251.269180,134.587830 258.652557,134.748367 
	C261.916809,134.819336 265.183899,134.760315 268.813263,134.760315 
	C268.813263,146.429077 268.811005,157.397537 268.813904,168.365982 
	C268.817047,180.364883 268.738770,192.364716 268.867889,204.362289 
	C268.930847,210.212753 272.967255,214.381699 278.328522,214.626297 
	C283.643646,214.868774 288.015015,210.934662 288.711304,205.178116 
	C288.890350,203.697540 288.813934,202.183197 288.814331,200.684357 
	C288.819763,180.352753 288.777618,160.020935 288.894623,139.690018 
	C288.904053,138.053543 289.996094,136.423325 291.555450,134.766205 
M226.819122,196.448456 
	C226.819000,173.660950 226.827316,150.873444 226.802628,128.085968 
	C226.800659,126.267525 226.794434,124.399712 226.404480,122.640327 
	C225.242294,117.396873 221.136032,114.442276 215.854645,114.824059 
	C210.789978,115.190178 206.922729,118.972191 206.900299,124.361397 
	C206.788849,151.140015 206.790466,177.919556 206.889694,204.698242 
	C206.910294,210.257263 210.923553,214.248718 216.135620,214.604492 
	C221.235977,214.952637 225.773972,211.330627 226.573013,205.888794 
	C226.980240,203.115494 226.757217,200.249664 226.819122,196.448456 
z"/>
<path fill="#8AA8BC" opacity="1.000000" stroke="none" 
	d="
M147.999771,378.391693 
	C113.739105,378.391846 79.978394,378.391846 45.921597,378.391846 
	C45.921597,367.303711 45.921597,356.753174 45.921597,345.608582 
	C48.101509,345.608582 50.046635,345.608582 51.991760,345.608582 
	C88.465157,345.608551 124.938560,345.608582 161.411957,345.608490 
	C177.207153,345.608490 177.646652,345.244324 180.348526,329.310822 
	C199.065933,340.107483 217.569626,350.780884 236.996918,361.987030 
	C217.750305,373.102600 199.184692,383.824860 180.622864,394.544952 
	C180.125626,393.734100 179.844711,393.480255 179.816788,393.201111 
	C178.475891,379.795105 176.935745,378.393829 163.488739,378.391602 
	C158.492401,378.390747 153.496063,378.391510 147.999771,378.391693 
z"/>
<path fill="#070605" opacity="1.000000" stroke="none" 
	d="
M384.628540,246.961304 
	C391.886963,248.424881 395.070038,251.697586 395.009613,257.166534 
	C394.952484,262.336578 391.953308,265.523590 385.363953,267.094849 
	C378.585175,265.829193 375.266754,262.574402 375.054291,257.428436 
	C374.845825,252.379120 378.032318,248.790756 384.628540,246.961304 
z"/>
<path fill="#030202" opacity="1.000000" stroke="none" 
	d="
M133.206421,119.760040 
	C139.048004,128.039001 144.676224,136.020767 150.562607,144.368622 
	C156.690201,135.694016 162.516449,127.405090 168.389755,119.149651 
	C171.100815,115.339005 174.897888,113.991997 179.350266,115.093536 
	C183.457840,116.109779 186.297150,119.049294 186.393143,123.158684 
	C186.460983,126.062210 185.360199,129.414139 183.726898,131.862686 
	C177.004349,141.940720 169.878815,151.749954 162.800323,161.801666 
	C171.153564,173.672989 179.495422,185.279892 187.503891,197.112457 
	C189.167404,199.570312 190.432266,202.875565 190.394836,205.771057 
	C190.339371,210.058868 187.541199,213.107056 183.151764,214.208633 
	C178.561401,215.360641 174.931427,213.713440 172.280304,210.005112 
	C166.088608,201.344315 160.011063,192.601944 153.877029,183.899841 
	C152.925400,182.549789 151.919678,181.237869 150.496597,179.308609 
	C145.917557,185.785095 141.565063,191.938614 137.215424,198.094131 
	C134.431183,202.034348 131.742401,206.046051 128.846680,209.902451 
	C125.003174,215.021088 119.063164,216.066376 114.419853,212.618958 
	C110.000755,209.338058 109.083298,203.484665 112.581268,198.419510 
	C120.238243,187.332031 127.968414,176.290817 135.914520,165.410217 
	C137.955048,162.616104 137.826263,160.799789 135.829102,158.091278 
	C129.512466,149.524780 123.480049,140.747696 117.388580,132.016556 
	C113.293213,126.146507 113.621193,120.597305 118.171394,116.912415 
	C122.704880,113.241066 128.226852,114.191246 133.206421,119.760040 
z"/>
<path fill="#020101" opacity="1.000000" stroke="none" 
	d="
M69.042465,194.179169 
	C74.200043,194.181854 78.869514,194.064438 83.530228,194.216019 
	C90.121033,194.430389 94.252014,198.402161 94.249969,204.265793 
	C94.247917,210.168808 90.110443,214.088547 83.506889,214.145630 
	C73.010147,214.236374 62.511429,214.241837 52.014748,214.148331 
	C44.742729,214.083557 41.033630,210.294861 41.020092,202.925034 
	C40.973267,177.431122 40.974220,151.937027 41.019302,126.443115 
	C41.032654,118.892693 44.870625,115.065910 52.396183,115.018478 
	C62.726669,114.953377 73.058372,114.941162 83.388596,115.025070 
	C90.004234,115.078804 94.171745,118.956490 94.241966,124.849464 
	C94.314842,130.964737 90.082680,134.909180 83.183090,134.981140 
	C76.028458,135.055740 68.872444,134.997757 61.358242,134.997757 
	C61.358242,141.528381 61.358242,147.893890 61.358242,154.762711 
	C67.767761,154.762711 74.056999,154.725128 80.345596,154.772690 
	C87.408897,154.826111 91.787010,158.504532 91.929359,164.406036 
	C92.073334,170.374573 87.451820,174.579941 80.305756,174.726364 
	C74.024109,174.855118 67.737747,174.753296 61.230766,174.753296 
	C61.230766,181.320236 61.230766,187.417740 61.230766,194.179138 
	C63.693855,194.179138 66.122154,194.179138 69.042465,194.179169 
z"/>
<path fill="#030202" opacity="1.000000" stroke="none" 
	d="
M291.070251,134.778198 
	C289.996094,136.423325 288.904053,138.053543 288.894623,139.690018 
	C288.777618,160.020935 288.819763,180.352753 288.814331,200.684357 
	C288.813934,202.183197 288.890350,203.697540 288.711304,205.178116 
	C288.015015,210.934662 283.643646,214.868774 278.328522,214.626297 
	C272.967255,214.381699 268.930847,210.212753 268.867889,204.362289 
	C268.738770,192.364716 268.817047,180.364883 268.813904,168.365982 
	C268.811005,157.397537 268.813263,146.429077 268.813263,134.760315 
	C265.183899,134.760315 261.916809,134.819336 258.652557,134.748367 
	C251.269180,134.587830 246.897079,130.828995 246.860306,124.694122 
	C246.822876,118.448532 251.068283,114.789162 258.549500,114.768326 
	C272.214874,114.730263 285.880615,114.718803 299.545898,114.775101 
	C306.481506,114.803673 310.922089,118.738884 310.914246,124.633606 
	C310.906799,130.266632 306.565277,134.366074 300.053162,134.722290 
	C297.228241,134.876816 294.388489,134.759842 291.070251,134.778198 
z"/>
<path fill="#040202" opacity="1.000000" stroke="none" 
	d="
M226.819092,196.937057 
	C226.757217,200.249664 226.980240,203.115494 226.573013,205.888794 
	C225.773972,211.330627 221.235977,214.952637 216.135620,214.604492 
	C210.923553,214.248718 206.910294,210.257263 206.889694,204.698242 
	C206.790466,177.919556 206.788849,151.140015 206.900299,124.361397 
	C206.922729,118.972191 210.789978,115.190178 215.854645,114.824059 
	C221.136032,114.442276 225.242294,117.396873 226.404480,122.640327 
	C226.794434,124.399712 226.800659,126.267525 226.802628,128.085968 
	C226.827316,150.873444 226.819000,173.660950 226.819092,196.937057 
z"/>
</svg>